# xmcd CD database file
#
# Track frame offsets:
#	150
#	14240
#	28007
#	39871
#	57125
#	72018
#	87516
#	102768
#	117755
#	132997
#	147652
#	164921
#	180380
#	196268
#	210873
#	227399
#	244528
#	258077
#	276450
#	289941
#
# Disc length: 3993 seconds
#
# Revision: 2
# Processed by: cddbd v1.5.2PL0 Copyright (c) Steve Scherf et al.
# Submitted via: CDex 1.70beta2
#
DISCID=1d0f9714
DTITLE=Édith Piaf - 100 Chansons - Disc 2
DYEAR=2007
DGENRE=Chanson
TTITLE0=La Vie en Rose
TTITLE1=Un Refrain Courait dans La Rue
TTITLE2=Je Ne Veux Plus Laver La Vaisselle
TTITLE3=Un Homme Comme Les Autres
TTITLE4=C'Était Si Bon
TTITLE5=Hymne à l'Amour
TTITLE6=La P'tite Marie
TTITLE7=C'est d'La Faute à Tes Yeux
TTITLE8=Chante Moi
TTITLE9=Du Matin Jusqu'aù Soir
TTITLE10=Chanson Bleue
TTITLE11=Ça Gueule Ça Madame
TTITLE12=Pour Qu'elle Soit Jolie Ma Chanson
TTITLE13=L'Effet Qu'tu M'Fais
TTITLE14=Un Grand Amour Qui S'Achève
TTITLE15=Légende [Live]
TTITLE16=C'est l'Amour
TTITLE17=La Belle Histoire d'Amour
TTITLE18=T'Es l'Homme Qu'il Me Faut
TTITLE19=Non La Vie N'Est Pas Triste
EXTD=YEAR: 2007
EXTT0=
EXTT1=
EXTT2=
EXTT3=
EXTT4=
EXTT5=
EXTT6=
EXTT7=
EXTT8=
EXTT9=
EXTT10=
EXTT11=
EXTT12=
EXTT13=
EXTT14=
EXTT15=
EXTT16=
EXTT17=
EXTT18=
EXTT19=
PLAYORDER=
